<?xml version="1.0" encoding="UTF-8" standalone="no"?>
<svg
   width="20"
   height="20"
   viewBox="0 0 22.577778 22.577778"
   version="1.1"
   id="svg831"
   inkscape:version="1.1.2 (1:1.1+202202050950+0a00cf5339)"
   sodipodi:docname="22 - Back Muscles.svg"
   inkscape:export-filename="/media/taufikramadhan/Data/Tr Design Studio/Project Design/TR Creative Design/Icon Design/Project Hiring/Icon Icons/018 - Gym And Fitness/5 - Send/3 - Flat/22 - Back Muscles.png"
   inkscape:export-xdpi="576"
   inkscape:export-ydpi="576"
   xmlns:inkscape="http://www.inkscape.org/namespaces/inkscape"
   xmlns:sodipodi="http://sodipodi.sourceforge.net/DTD/sodipodi-0.dtd"
   xmlns="http://www.w3.org/2000/svg"
   xmlns:svg="http://www.w3.org/2000/svg"
   xmlns:rdf="http://www.w3.org/1999/02/22-rdf-syntax-ns#"
   xmlns:cc="http://creativecommons.org/ns#"
   xmlns:dc="http://purl.org/dc/elements/1.1/">
  <defs
     id="defs825">
    <pattern
       id="EMFhbasepattern"
       patternUnits="userSpaceOnUse"
       width="6"
       height="6"
       x="0"
       y="0" />
    <pattern
       id="EMFhbasepattern-9"
       patternUnits="userSpaceOnUse"
       width="6"
       height="6"
       x="0"
       y="0" />
    <pattern
       id="EMFhbasepattern-0"
       patternUnits="userSpaceOnUse"
       width="6"
       height="6"
       x="0"
       y="0" />
    <pattern
       id="EMFhbasepattern-7"
       patternUnits="userSpaceOnUse"
       width="6"
       height="6"
       x="0"
       y="0" />
    <pattern
       id="EMFhbasepattern-2"
       patternUnits="userSpaceOnUse"
       width="6"
       height="6"
       x="0"
       y="0" />
    <pattern
       id="EMFhbasepattern-98"
       patternUnits="userSpaceOnUse"
       width="6"
       height="6"
       x="0"
       y="0" />
    <pattern
       id="EMFhbasepattern-6"
       patternUnits="userSpaceOnUse"
       width="6"
       height="6"
       x="0"
       y="0" />
    <pattern
       id="EMFhbasepattern-01"
       patternUnits="userSpaceOnUse"
       width="6"
       height="6"
       x="0"
       y="0" />
    <pattern
       id="EMFhbasepattern-07"
       patternUnits="userSpaceOnUse"
       width="6"
       height="6"
       x="0"
       y="0" />
    <pattern
       id="EMFhbasepattern-8"
       patternUnits="userSpaceOnUse"
       width="6"
       height="6"
       x="0"
       y="0" />
    <pattern
       id="EMFhbasepattern-4"
       patternUnits="userSpaceOnUse"
       width="6"
       height="6"
       x="0"
       y="0" />
    <pattern
       id="EMFhbasepattern-40"
       patternUnits="userSpaceOnUse"
       width="6"
       height="6"
       x="0"
       y="0" />
    <pattern
       id="EMFhbasepattern-08"
       patternUnits="userSpaceOnUse"
       width="6"
       height="6"
       x="0"
       y="0" />
    <pattern
       id="EMFhbasepattern-04"
       patternUnits="userSpaceOnUse"
       width="6"
       height="6"
       x="0"
       y="0" />
    <pattern
       id="EMFhbasepattern-014"
       patternUnits="userSpaceOnUse"
       width="6"
       height="6"
       x="0"
       y="0" />
    <pattern
       id="EMFhbasepattern-27"
       patternUnits="userSpaceOnUse"
       width="6"
       height="6"
       x="0"
       y="0" />
    <pattern
       id="EMFhbasepattern-09"
       patternUnits="userSpaceOnUse"
       width="6"
       height="6"
       x="0"
       y="0" />
    <pattern
       id="EMFhbasepattern-5"
       patternUnits="userSpaceOnUse"
       width="6"
       height="6"
       x="0"
       y="0" />
    <pattern
       id="EMFhbasepattern-018"
       patternUnits="userSpaceOnUse"
       width="6"
       height="6"
       x="0"
       y="0" />
  </defs>
  <sodipodi:namedview
     inkscape:lockguides="true"
     id="base"
     pagecolor="#ffffff"
     bordercolor="#666666"
     borderopacity="1.0"
     inkscape:pageopacity="0.0"
     inkscape:pageshadow="2"
     inkscape:zoom="5.5546875"
     inkscape:cx="42.756681"
     inkscape:cy="42.666667"
     inkscape:document-units="pt"
     inkscape:current-layer="layer1"
     showgrid="false"
     units="pt"
     inkscape:window-width="1366"
     inkscape:window-height="705"
     inkscape:window-x="0"
     inkscape:window-y="31"
     inkscape:window-maximized="1"
     inkscape:pagecheckerboard="true"
     inkscape:showpageshadow="false"
     inkscape:object-paths="true"
     inkscape:snap-intersection-paths="true"
     inkscape:snap-smooth-nodes="true"
     inkscape:snap-midpoints="true"
     showguides="false"
     inkscape:snap-bbox="true"
     inkscape:bbox-nodes="true"
     inkscape:snap-nodes="false"
     inkscape:snap-global="true"
     inkscape:document-rotation="0">
    <inkscape:grid
       type="xygrid"
       id="grid1378" />
    <sodipodi:guide
       position="0.97013831,21.607643"
       orientation="78.000048,0"
       id="guide1380"
       inkscape:locked="true" />
    <sodipodi:guide
       position="0.97013831,0.97013129"
       orientation="0,78.000005"
       id="guide1382"
       inkscape:locked="true" />
    <sodipodi:guide
       position="21.607639,0.97013129"
       orientation="-78.000048,0"
       id="guide1384"
       inkscape:locked="true" />
    <sodipodi:guide
       position="21.607639,21.607643"
       orientation="0,-78.000005"
       id="guide1386"
       inkscape:locked="true" />
  </sodipodi:namedview>
  <metadata
     id="metadata828">
    <rdf:RDF>
      <cc:Work
         rdf:about="">
        <dc:format>image/svg+xml</dc:format>
        <dc:type
           rdf:resource="http://purl.org/dc/dcmitype/StillImage" />
      </cc:Work>
    </rdf:RDF>
  </metadata>
  <g
     inkscape:label="Icon"
     inkscape:groupmode="layer"
     id="layer1"
     transform="translate(0,-274.42223)">
    <g
       id="g124079"
       style="display:inline;stroke-width:0.794878"
       transform="matrix(1.2580546,0,0,1.2580546,-37.737159,-154.02795)">
      <path
         style="color:#000000;fill:#ffccbc;stroke-width:0.794878;stroke-linecap:round;stroke-linejoin:round;stroke-miterlimit:10;-inkscape-stroke:none"
         d="m 43.417215,345.08845 c -0.421467,-0.42051 -1.031126,-0.54641 -1.532451,-0.58878 -0.381258,-0.0322 -0.540945,-0.005 -0.697266,0.01 l -0.181641,-1.44922 c -0.0473,-0.37841 -0.372548,-0.66602 -0.753906,-0.66602 l -2.564451,10e-5 c -0.381357,0 -0.706604,0.28761 -0.753906,0.66602 l -0.181641,1.44922 c -0.156844,-0.0149 -0.317011,-0.0422 -0.699219,-0.01 -0.459079,0.039 -0.975332,0.23529 -1.384765,0.57812 -0.03511,-0.005 -1.209141,-0.0817 -1.941407,0.7793 -0.08138,-0.003 -0.883008,-0.0509 -1.53125,0.45508 -0.176046,0.13738 -0.267445,0.32803 -0.332031,0.51953 -0.06459,0.1915 -0.09571,0.38692 -0.0957,0.56055 v 1.38281 c 3e-6,0.41797 0.318666,0.79579 0.757813,0.80469 0.412687,0.008 0.701433,-0.0893 0.986328,-0.1836 0.05183,0.36025 0.321668,1.49137 1.470703,2.28711 0.0032,0.13211 0.117726,1.47181 1.298828,2.56446 l -0.175781,1.54882 c -8.4e-5,6.8e-4 8.2e-5,10e-4 0,0.002 v 0.002 c -0.05555,0.4638 0.313566,0.88281 0.78125,0.88281 h 6.166015 c 0.468868,0 0.83553,-0.41937 0.78125,-0.88281 l -0.18164,-1.54492 c 1.187886,-1.08393 1.299723,-2.43389 1.302734,-2.56641 1.153534,-0.78402 1.420604,-1.9328 1.470703,-2.29492 0.284606,0.0948 0.572886,0.19399 0.988281,0.18555 0.438659,-0.01 0.75781,-0.38672 0.757813,-0.80469 v -1.38281 c 10e-7,-0.17365 -0.03303,-0.36901 -0.09766,-0.56055 -0.06462,-0.19154 -0.155914,-0.38215 -0.332032,-0.51953 -0.645446,-0.50353 -1.440167,-0.46007 -1.527343,-0.45703 -0.351238,-0.40736 -0.793121,-0.6504 -1.166016,-0.7168 -0.215256,-0.0368 -0.41978,-0.0439 -0.631612,-0.0501 z"
         id="path200367"
         sodipodi:nodetypes="ccccccccccccscscccccccsscccccssscccc" />
      <path
         id="path95164"
         style="color:#000000;fill:#ffa185;stroke-width:3.00427;stroke-linecap:round;stroke-linejoin:round;stroke-miterlimit:10;-inkscape-stroke:none"
         d="m 140.25391,247.57031 c -0.35539,0.0124 -0.69228,0.21549 -0.86133,0.55664 -0.24782,0.49527 -0.047,1.09787 0.44922,1.34375 0.31313,0.15648 0.76469,0.57113 1.08593,0.95118 0.32126,0.37999 0.51758,0.6875 0.51758,0.6875 0.29547,0.46696 0.91218,0.60443 1.37891,0.30859 0.46441,-0.29786 0.59991,-0.91407 0.30273,-1.37891 0,0 -0.26683,-0.42215 -0.67773,-0.9082 -0.41089,-0.48605 -0.95455,-1.07592 -1.71289,-1.45508 -0.15477,-0.0774 -0.32088,-0.11112 -0.48242,-0.10547 z m 14.00781,0.002 c -0.14571,0.003 -0.2907,0.0377 -0.42383,0.10351 -0.75834,0.37916 -1.30787,0.96903 -1.71875,1.45508 -0.41089,0.48605 -0.67969,0.9082 -0.67969,0.9082 -0.29581,0.46676 -0.15645,1.08348 0.31055,1.37891 0.46673,0.29584 1.08539,0.15837 1.38086,-0.30859 0,0 0.19437,-0.30751 0.51562,-0.6875 0.32123,-0.38005 0.7728,-0.79463 1.08594,-0.95118 0.49623,-0.24588 0.69704,-0.84848 0.44922,-1.34375 -0.11965,-0.23841 -0.32847,-0.4191 -0.58203,-0.50195 -0.10953,-0.0367 -0.22456,-0.0549 -0.33789,-0.0527 z m -19.90234,0.99804 c -0.042,0.002 -0.0844,0.007 -0.12696,0.0137 -0.54747,0.0918 -0.91621,0.61142 -0.82031,1.15821 0,0 0.0593,0.34156 0.16797,0.79492 -0.21891,-0.0277 -0.43417,-0.0471 -0.64649,-0.0566 -1.2372,-0.0556 -2.35635,0.18121 -3.27148,0.5332 -1.83027,0.70394 -2.97461,1.85156 -2.97461,1.85156 -0.3926,0.39088 -0.3926,1.0271 0,1.41797 0.39088,0.3926 1.02709,0.3926 1.41797,0 0,0 0.85371,-0.85631 2.27344,-1.40234 1.41972,-0.54607 3.27683,-0.79367 5.50781,0.54492 0,0 1.05379,0.6412 1.92578,1.94922 0.87199,1.30798 1.5399,3.16936 0.63477,5.88477 -0.17273,0.52383 0.11124,1.08804 0.63476,1.26171 0.52385,0.17274 1.08805,-0.11123 1.26172,-0.63476 0.48574,-1.45722 0.59294,-2.78754 0.46289,-3.96484 0.90839,0.37717 2.06306,0.65039 3.48047,0.65039 0.5496,-0.002 0.9942,-0.44847 0.99609,-0.99805 0.002,-0.55249 -0.4436,-1.00202 -0.99609,-1.00391 -1.80637,0 -2.92566,-0.50428 -3.61719,-0.98047 -0.58001,-0.32983 -0.8731,-0.83337 -1.18945,-1.32212 -1.12801,-1.69202 -2.56836,-2.55274 -2.56836,-2.55274 -0.3494,-0.20963 -0.69659,-0.38799 -1.04102,-0.53906 -0.10906,-0.26977 -0.22923,-0.63986 -0.31054,-0.96094 -0.11475,-0.45316 -0.17578,-0.81054 -0.17578,-0.81054 -0.0849,-0.50156 -0.53009,-0.8538 -1.02539,-0.83399 z m 25.78124,0 c -0.46446,0.0163 -0.86868,0.35777 -0.94921,0.83399 0,0 -0.063,0.35723 -0.17774,0.81054 -0.0811,0.32033 -0.19973,0.68937 -0.30859,0.95899 -0.34452,0.1513 -0.69275,0.33088 -1.04297,0.54101 0,0 -1.44035,0.86072 -2.56836,2.55274 -0.30825,0.61317 -0.82029,0.98711 -1.18945,1.32212 -0.69153,0.47619 -1.81083,0.98243 -3.61719,0.98243 -0.55537,-0.002 -1.00611,0.44854 -1.00391,1.0039 0.002,0.55249 0.45143,0.99829 1.00391,0.9961 1.4173,0 2.57211,-0.27132 3.48047,-0.64844 -0.12972,1.17683 -0.0226,2.50646 0.46289,3.96289 0.17371,0.5232 0.73808,0.80712 1.26172,0.63476 0.52319,-0.17371 0.80712,-0.73807 0.63476,-1.26171 -0.90513,-2.71541 -0.24504,-4.57679 0.62696,-5.88477 0.87199,-1.30802 1.93554,-1.94922 1.93554,-1.94922 2.23098,-1.33859 4.07832,-1.09099 5.49805,-0.54492 1.41973,0.54603 2.28125,1.40234 2.28125,1.40234 0.39006,0.38783 1.0201,0.38783 1.41016,0 0.39303,-0.39095 0.39303,-1.02702 0,-1.41797 0,0 -1.13653,-1.14762 -2.9668,-1.85156 -0.91513,-0.35187 -2.04014,-0.58872 -3.27734,-0.5332 -0.20982,0.009 -0.42472,0.0295 -0.64063,0.0566 0.10867,-0.45336 0.16797,-0.79492 0.16797,-0.79492 0.0959,-0.54679 -0.27282,-1.06629 -0.82031,-1.15821 -0.068,-0.0114 -0.13481,-0.016 -0.20118,-0.0137 z m -29.73437,7.00391 c -0.0822,-5.7e-4 -0.16463,0.009 -0.24805,0.0293 -0.53608,0.13253 -0.86487,0.67483 -0.73242,1.21093 0,0 1.15784,4.58585 5.72852,5.72852 0.5361,0.13245 1.0784,-0.19438 1.21093,-0.73047 0.13291,-0.53383 -0.18956,-1.07508 -0.72265,-1.21094 -3.42932,-0.85731 -4.27539,-4.27343 -4.27539,-4.27344 -0.11463,-0.4498 -0.51713,-0.75084 -0.96094,-0.7539 z m 33.72852,0.002 c -0.44139,0.0182 -0.81853,0.32389 -0.92774,0.75195 0,0 -0.84607,3.41613 -4.27539,4.27344 -0.53294,0.13619 -0.85582,0.67724 -0.72266,1.21094 0.13268,0.5361 0.67484,0.86314 1.21094,0.73047 4.57068,-1.14267 5.72852,-5.72852 5.72852,-5.72852 0.13255,-0.5367 -0.19553,-1.07913 -0.73242,-1.21093 -0.092,-0.0224 -0.18668,-0.0316 -0.28125,-0.0274 z m -21.69727,8 c -0.096,-0.004 -0.19201,0.006 -0.28516,0.0293 -0.53293,0.1362 -0.85581,0.67724 -0.72265,1.21094 0,0 0.86497,3.43972 -1.74219,6.04687 -0.39173,0.39073 -0.39173,1.02529 0,1.41602 0.39095,0.39303 1.02702,0.39303 1.41797,0 3.39283,-3.39285 2.26562,-7.94922 2.26562,-7.94922 -0.10909,-0.43084 -0.48944,-0.73799 -0.93359,-0.75391 z m 9.69922,0 c -0.44416,0.0159 -0.82451,0.32306 -0.9336,0.75391 0,0 -1.1272,4.55637 2.26563,7.94922 0.39006,0.38783 1.0201,0.38783 1.41016,0 0.39173,-0.39073 0.39173,-1.02529 0,-1.41602 -2.60717,-2.60715 -1.73438,-6.04687 -1.73438,-6.04687 0.13316,-0.5337 -0.18972,-1.07474 -0.72265,-1.21094 -0.0931,-0.0234 -0.18919,-0.0333 -0.28516,-0.0293 z m -18.63086,0.48438 c -0.0438,0.001 -0.0875,0.005 -0.13086,0.0117 -0.54589,0.0851 -0.91934,0.59673 -0.83398,1.14257 0.23213,1.49462 1.06967,3.96885 3.24804,5.22657 0.47937,0.27642 1.09209,0.11098 1.36719,-0.36914 0.27509,-0.47893 0.10981,-1.09019 -0.36914,-1.36524 -1.28572,-0.74234 -2.1184,-2.80253 -2.27344,-3.80078 -0.0771,-0.49431 -0.50762,-0.85558 -1.00781,-0.8457 z m 27.57226,0 c -0.50606,-0.0179 -0.94561,0.34534 -1.02343,0.8457 -0.15504,0.99825 -0.98186,3.05844 -2.26758,3.80078 -0.47895,0.27505 -0.64423,0.88631 -0.36914,1.36524 0.2751,0.48012 0.88782,0.64556 1.36719,0.36914 2.17837,-1.25772 3.01591,-3.73195 3.24804,-5.22657 0.0866,-0.54654 -0.2872,-1.05947 -0.83398,-1.14453 v 0.002 c -0.0401,-0.006 -0.0805,-0.0103 -0.1211,-0.0117 z m -16.74609,7.51562 c -0.10452,0.007 -0.20734,0.0298 -0.30469,0.0684 -0.51464,0.20374 -0.76588,0.78678 -0.56054,1.30078 0,0 1.82924,4.68275 0,9.25586 -0.20405,0.51345 0.047,1.09508 0.56054,1.29883 0.51183,0.2062 1.09395,-0.0412 1.30078,-0.55273 2.17076,-5.42691 0,-10.74805 0,-10.74805 -0.16216,-0.4014 -0.5642,-0.65287 -0.99609,-0.62305 z m 5.91016,0 c -0.4319,-0.0298 -0.83394,0.22164 -0.9961,0.62305 0,0 -2.17075,5.32114 0,10.74805 0.20683,0.51158 0.78896,0.75894 1.30079,0.55273 0.51357,-0.20375 0.76459,-0.78538 0.56054,-1.29883 -1.82924,-4.57311 0,-9.25586 0,-9.25586 0.20534,-0.514 -0.0459,-1.09704 -0.56054,-1.30078 -0.0973,-0.0386 -0.20017,-0.0617 -0.30469,-0.0684 z m -8.88477,3.55274 c -0.16148,0.007 -0.31897,0.0521 -0.45898,0.13281 -0.12945,0.0748 -1.09794,0.30828 -2,0.31055 -0.90207,0.002 -1.86869,-0.22463 -1.98633,-0.29493 -0.47299,-0.28542 -1.08781,-0.13325 -1.37305,0.33985 -0.28406,0.47503 -0.12823,1.09044 0.34766,1.37304 0.88235,0.52755 1.91378,0.58487 3.01172,0.58204 1.09793,-0.003 2.12553,-0.0737 2.99609,-0.57618 0.47895,-0.27505 0.64422,-0.8863 0.36914,-1.36523 -0.18512,-0.32295 -0.53429,-0.51635 -0.90625,-0.50195 z m 11.85938,0.002 c -0.37155,-0.0148 -0.72062,0.1778 -0.90625,0.5 -0.27773,0.47732 -0.11596,1.08941 0.36133,1.36719 0.87055,0.50264 1.90011,0.57142 2.99804,0.57422 1.09794,0.003 2.13523,-0.0545 3.01758,-0.58204 0.47589,-0.2826 0.63172,-0.89801 0.34766,-1.37304 -0.28524,-0.4731 -0.90006,-0.62527 -1.37305,-0.33985 -0.11766,0.0703 -1.08427,0.29719 -1.98633,0.29493 -0.90206,-0.002 -1.87056,-0.23609 -2,-0.31055 -0.14019,-0.08 -0.29767,-0.12492 -0.45898,-0.13086 z"
         transform="matrix(0.26458334,0,0,0.26458334,0,280.06666)"
         sodipodi:nodetypes="sccscccsssscscccscccsscccccscccscscccccccccccscccccscccccccccccscscccccccsccsccccccssccccccssccccccccccccccccsccccccssccccccccccsccccccsssccccccsscccccccccccccccccccc" />
      <path
         id="path145680"
         style="color:#000000;fill:#ffa185;stroke-width:3.00427;stroke-linecap:round;stroke-linejoin:round;stroke-miterlimit:10;-inkscape-stroke:none"
         d="m 128.43766,270.69529 c 0.22272,3.67122 2.7446,7.64878 4.90616,9.68355 -0.21334,1.96121 -0.43168,3.8969 -0.66208,5.85936 -0.14415,1.23073 0.49894,2.37695 1.50781,2.95117 -0.23538,-3.00357 0.51379,-4.56436 0.75391,-4.97851 0.17491,0.10686 0.35285,0.21139 0.5332,0.31445 0.47896,0.27553 1.09008,0.1101 1.36524,-0.36914 0.27537,-0.47902 0.11006,-1.09016 -0.36914,-1.36523 -7.8e-4,-4.5e-4 -0.001,-0.002 -0.002,-0.002 h 0.002 c 0,0 -3.3618,-3.61819 -4.78907,-8.38086 0.11647,0.0295 0.23438,0.0581 0.35352,0.0879 0.53611,0.13228 1.0784,-0.1943 1.21094,-0.73047 0.13228,-0.53547 -0.19353,-1.0776 -0.72852,-1.21093 h -0.002 v -0.002 c 0,0 -6.16619,-4.32941 -7.30078,-9.44531 0.72597,-0.41307 1.42282,-0.88754 2.08789,-1.4043 0.41547,-0.36283 0.45815,-0.99418 0.0957,-1.41015 -0.17473,-0.19994 -0.42269,-0.32051 -0.6875,-0.33789 -0.0167,-10e-4 -0.0322,-0.004 -0.0488,-0.004 l -8e-5,2.4e-4 c -0.24999,-0.005 -0.49401,0.0867 -0.68164,0.25391 -1.27147,0.88048 -1.88174,1.27043 -3.10351,1.82812 0.0475,0.33048 0.1454,0.83497 0.35652,1.5498 0.62257,2.03847 2.01389,4.94237 5.20223,7.11229 z"
         transform="matrix(0.26458334,0,0,0.26458334,0,280.06666)"
         sodipodi:nodetypes="cccccccscccccccccccccccccc" />
      <path
         id="path185818"
         style="color:#000000;fill:#ffa185;stroke-width:3.00427;stroke-linecap:round;stroke-linejoin:round;stroke-miterlimit:10;-inkscape-stroke:none"
         d="m 136.26148,243.5277 c -1.7351,0.14741 -3.68496,0.88786 -5.23242,2.1836 -0.86257,-0.0704 -1.89213,0.10876 -2.7382,0.26037 -1.46131,0.33803 -3.23336,1.0791 -4.59961,2.68555 -0.74822,-0.0319 -1.65713,0.0982 -2.39471,0.19906 -0.23697,0.5406 -0.41667,1.13786 -0.52149,1.79687 -0.088,0.54482 0.28142,1.05797 0.82617,1.14649 0.54483,0.0881 1.05798,-0.28128 1.14649,-0.82617 0,0 2.68944,-3.42669 5.07812,-3.70313 -0.005,0.0235 -0.0108,0.0466 -0.0156,0.0703 -0.1112,0.54252 0.24026,1.07257 0.7832,1.18164 0.5409,0.11263 1.07121,-0.23454 1.18359,-0.77539 0.0211,-0.10292 0.0471,-0.20351 0.0781,-0.30273 0,0 2.95137,-2.89573 6.98242,-3.07617 l -0.043,0.56836 c -0.0447,0.55302 0.3705,1.03704 0.92383,1.07812 0.55026,0.0404 1.02918,-0.37372 1.07031,-0.92383 l 0.11524,-1.52539 c -0.3705,-0.0352 -0.746,-0.0883 -1.66302,-0.0861 -0.53174,0.0166 -0.74056,0.0285 -0.97942,0.0486 z"
         transform="matrix(0.26458334,0,0,0.26458334,0,280.06666)"
         sodipodi:nodetypes="cccccccccccccccccccc" />
      <path
         id="path113543"
         style="color:#000000;fill:#ffa185;stroke-width:3.00427;stroke-linecap:round;stroke-linejoin:round;stroke-miterlimit:10;-inkscape-stroke:none"
         d="m 166.13663,270.69328 c 3.18982,-2.17135 4.5804,-5.07401 5.20212,-7.11133 0.2115,-0.715 0.30881,-1.21985 0.35642,-1.55078 -1.22177,-0.55771 -1.83204,-0.94765 -3.10351,-1.82813 -0.18763,-0.16743 -0.43167,-0.25768 -0.68164,-0.2539 l 1.4e-4,8e-5 c -0.0167,0 -0.0322,0.003 -0.0488,0.004 -0.26481,0.0174 -0.51277,0.13796 -0.6875,0.3379 -0.36245,0.41597 -0.31977,1.04732 0.0957,1.41015 0.66485,0.51659 1.36216,0.98938 2.08789,1.40235 -1.13216,5.11768 -7.30078,9.44921 -7.30078,9.44921 -0.53609,0.13255 -0.8629,0.67485 -0.73047,1.21094 0.13254,0.5362 0.67483,0.86275 1.21094,0.73047 0.11904,-0.0298 0.23519,-0.0584 0.35156,-0.0879 -1.42698,4.7635 -4.78711,8.38281 -4.78711,8.38281 -0.4792,0.27508 -0.64451,0.88622 -0.36914,1.36524 0.27516,0.47924 0.88628,0.64467 1.36524,0.36914 0.18029,-0.10303 0.35639,-0.20763 0.53125,-0.31446 0.23602,0.40441 0.99246,1.96139 0.75586,4.98047 1.00887,-0.57421 1.65196,-1.72044 1.50781,-2.95117 -0.24457,-1.96342 -0.44012,-3.89941 -0.66214,-5.86131 2.83234,-2.59588 4.03536,-5.58787 4.54101,-7.55859 0.19046,-0.69632 0.2815,-1.41105 0.36515,-2.12519 z"
         transform="matrix(0.26458334,0,0,0.26458334,0,280.06666)"
         sodipodi:nodetypes="ccccccccccccccccccccccc" />
      <path
         id="path113549"
         style="color:#000000;fill:#ffa185;stroke-width:3.00427;stroke-linecap:round;stroke-linejoin:round;stroke-miterlimit:10;-inkscape-stroke:none"
         d="m 172.9726,251.79697 c 0.54474,-0.0886 0.91416,-0.60167 0.82617,-1.14649 -0.10482,-0.659 -0.28451,-1.25625 -0.52149,-1.79687 -0.79738,-0.15238 -1.59529,-0.25078 -2.39471,-0.1991 -1.38381,-1.62709 -3.28904,-2.61822 -4.65525,-2.74991 -0.71928,-0.10344 -1.41514,-0.12741 -2.13182,-0.15222 -1.44592,-1.46003 -3.78834,-2.06939 -5.52343,-2.21679 -0.97417,-0.11099 -1.94845,-0.0578 -2.90215,0.0289 l 0.11524,1.52539 c 0.0411,0.55004 0.52005,0.96427 1.07031,0.92383 0.55332,-0.0411 0.96854,-0.5251 0.92383,-1.07812 l -0.043,-0.56641 c 4.16724,0.0632 7.5332,3.11524 7.5332,3.11524 0.0311,0.0993 0.0571,0.19972 0.0781,0.30273 0.11237,0.54108 0.64269,0.88802 1.18359,0.77539 0.54093,-0.10864 0.89254,-0.6354 0.78516,-1.17578 2.22692,0.67462 4.50976,3.58303 4.50976,3.58303 0.0885,0.54601 0.60166,0.91524 1.14649,0.82718 z"
         transform="matrix(0.26458334,0,0,0.26458334,0,280.06666)"
         sodipodi:nodetypes="cccccccccccccccccc" />
    </g>
  </g>
</svg>
